<?xml version="1.0" encoding="UTF-8" standalone="no"?>
<svg
   xmlns:dc="http://purl.org/dc/elements/1.1/"
   xmlns:cc="http://creativecommons.org/ns#"
   xmlns:rdf="http://www.w3.org/1999/02/22-rdf-syntax-ns#"
   xmlns:svg="http://www.w3.org/2000/svg"
   xmlns="http://www.w3.org/2000/svg"
   xmlns:sodipodi="http://sodipodi.sourceforge.net/DTD/sodipodi-0.dtd"
   xmlns:inkscape="http://www.inkscape.org/namespaces/inkscape"
   id="svg8"
   version="1.1"
   viewBox="0 0 600 176"
   height="176mm"
   width="600mm"
   sodipodi:docname="logo.svg"
   inkscape:version="0.92.3 (2405546, 2018-03-11)">
  <sodipodi:namedview
     pagecolor="#ffffff"
     bordercolor="#666666"
     borderopacity="1"
     objecttolerance="10"
     gridtolerance="10"
     guidetolerance="10"
     inkscape:pageopacity="0"
     inkscape:pageshadow="2"
     inkscape:window-width="1366"
     inkscape:window-height="713"
     id="namedview1032"
     showgrid="false"
     inkscape:zoom="0.35101389"
     inkscape:cx="1140.0789"
     inkscape:cy="446.55403"
     inkscape:window-x="0"
     inkscape:window-y="27"
     inkscape:window-maximized="1"
     inkscape:current-layer="svg8" />
  <defs
     id="defs2" />
  <metadata
     id="metadata5">
    <rdf:RDF>
      <cc:Work
         rdf:about="">
        <dc:format>image/svg+xml</dc:format>
        <dc:type
           rdf:resource="http://purl.org/dc/dcmitype/StillImage" />
        <dc:title />
      </cc:Work>
    </rdf:RDF>
  </metadata>
  <g
     aria-label="slosarek.eu"
     style="font-style:normal;font-variant:normal;font-weight:normal;font-stretch:normal;font-size:95.25px;line-height:1.25;font-family:Lato;-inkscape-font-specification:'Lato, Normal';font-variant-ligatures:normal;font-variant-caps:normal;font-variant-numeric:normal;font-feature-settings:normal;text-align:start;letter-spacing:0px;word-spacing:0px;writing-mode:lr-tb;text-anchor:start;fill:#000000;fill-opacity:1;stroke:#b3b3b3;stroke-width:0.41114756;stroke-miterlimit:4;stroke-dasharray:none"
     id="text821"
     transform="matrix(1.2342075,0,0,1.2342075,-33.343969,-29.804291)">
    <path
       d="m 61.28922,86.249541 q -0.5715,1.04775 -1.762125,1.04775 -0.714375,0 -1.61925,-0.523875 -0.904875,-0.523875 -2.238375,-1.143 -1.285875,-0.66675 -3.095625,-1.190625 -1.80975,-0.5715 -4.28625,-0.5715 -2.143125,0 -3.857625,0.5715 -1.7145,0.523875 -2.95275,1.476375 -1.190625,0.9525 -1.857375,2.238375 -0.619125,1.23825 -0.619125,2.714625 0,1.857375 1.04775,3.095625 1.095375,1.23825 2.8575,2.143125 1.762125,0.904875 4.0005,1.61925 2.238375,0.66675 4.572,1.476375 2.38125,0.762 4.619625,1.714499 2.238375,0.9525 4.0005,2.38125 1.762125,1.42875 2.809875,3.52425 1.095375,2.04788 1.095375,4.953 0,3.33375 -1.190625,6.19125 -1.190625,2.80988 -3.52425,4.90538 -2.333625,2.04787 -5.715,3.2385 -3.381375,1.19062 -7.8105,1.19062 -5.04825,0 -9.144,-1.61925 -4.09575,-1.66687 -6.95325,-4.23862 l 2.00025,-3.2385 q 0.381,-0.61913 0.904875,-0.9525 0.523875,-0.33338 1.381125,-0.33338 0.85725,0 1.80975,0.66675 0.9525,0.66675 2.286,1.47638 1.381125,0.80962 3.286125,1.47637 1.952625,0.66675 4.85775,0.66675 2.4765,0 4.333875,-0.61912 1.857375,-0.66675 3.095625,-1.76213 1.23825,-1.09537 1.80975,-2.52412 0.619125,-1.42875 0.619125,-3.048 0,-2.00025 -1.095375,-3.28613 -1.04775,-1.3335 -2.809875,-2.23837 -1.762125,-0.9525 -4.048125,-1.61925 -2.238375,-0.71438 -4.619625,-1.47638 -2.333625,-0.762 -4.619625,-1.7145 -2.238375,-1.00012 -4.0005,-2.4765 -1.762125,-1.476374 -2.8575,-3.619499 -1.04775,-2.19075 -1.04775,-5.286375 0,-2.76225 1.143,-5.286375 1.143,-2.57175 3.33375,-4.47675 2.19075,-1.952625 5.381625,-3.095625 3.190875,-1.143 7.286625,-1.143 4.7625,0 8.524875,1.524 3.81,1.476375 6.57225,4.09575 z"
       style="font-style:normal;font-variant:normal;font-weight:normal;font-stretch:normal;font-size:95.25px;font-family:Lato;-inkscape-font-specification:'Lato, Normal';font-variant-ligatures:normal;font-variant-caps:normal;font-variant-numeric:normal;font-feature-settings:normal;text-align:start;writing-mode:lr-tb;text-anchor:start;stroke:#b3b3b3;stroke-width:0.41114756;stroke-miterlimit:4;stroke-dasharray:none"
       id="path825"
       inkscape:connector-curvature="0" />
    <path
       d="m 84.396275,56.388666 v 70.151624 h -8.47725 V 56.388666 Z"
       style="font-style:normal;font-variant:normal;font-weight:normal;font-stretch:normal;font-size:95.25px;font-family:Lato;-inkscape-font-specification:'Lato, Normal';font-variant-ligatures:normal;font-variant-caps:normal;font-variant-numeric:normal;font-feature-settings:normal;text-align:start;writing-mode:lr-tb;text-anchor:start;stroke:#b3b3b3;stroke-width:0.41114756;stroke-miterlimit:4;stroke-dasharray:none"
       id="path827"
       inkscape:connector-curvature="0" />
    <path
       d="m 118.86338,77.534166 q 5.28638,0 9.525,1.762125 4.28625,1.762125 7.239,5.000625 3.00038,3.2385 4.572,7.858125 1.61925,4.572 1.61925,10.239379 0,5.715 -1.61925,10.287 -1.57162,4.572 -4.572,7.8105 -2.95275,3.2385 -7.239,5.00062 -4.23862,1.7145 -9.525,1.7145 -5.28637,0 -9.57262,-1.7145 -4.23863,-1.76212 -7.239,-5.00062 -3.000379,-3.2385 -4.619629,-7.8105 -1.61925,-4.572 -1.61925,-10.287 0,-5.667379 1.61925,-10.239379 1.61925,-4.619625 4.619629,-7.858125 3.00037,-3.2385 7.239,-5.000625 4.28625,-1.762125 9.57262,-1.762125 z m 0,43.053004 q 7.14375,0 10.668,-4.7625 3.52425,-4.81013 3.52425,-13.38263 0,-8.620124 -3.52425,-13.430249 -3.52425,-4.810125 -10.668,-4.810125 -3.6195,0 -6.2865,1.23825 -2.667,1.23825 -4.47675,3.571875 -1.76212,2.333625 -2.667,5.762625 -0.85725,3.381375 -0.85725,7.667624 0,4.28625 0.85725,7.66763 0.90488,3.38137 2.667,5.715 1.80975,2.286 4.47675,3.52425 2.667,1.23825 6.2865,1.23825 z"
       style="font-style:normal;font-variant:normal;font-weight:normal;font-stretch:normal;font-size:95.25px;font-family:Lato;-inkscape-font-specification:'Lato, Normal';font-variant-ligatures:normal;font-variant-caps:normal;font-variant-numeric:normal;font-feature-settings:normal;text-align:start;writing-mode:lr-tb;text-anchor:start;stroke:#b3b3b3;stroke-width:0.41114756;stroke-miterlimit:4;stroke-dasharray:none"
       id="path829"
       inkscape:connector-curvature="0" />
    <path
       d="m 179.97965,86.249541 q -0.5715,1.04775 -1.76212,1.04775 -0.71438,0 -1.61925,-0.523875 -0.90488,-0.523875 -2.23838,-1.143 -1.28587,-0.66675 -3.09562,-1.190625 -1.80975,-0.5715 -4.28625,-0.5715 -2.14313,0 -3.85763,0.5715 -1.7145,0.523875 -2.95275,1.476375 -1.19062,0.9525 -1.85737,2.238375 -0.61913,1.23825 -0.61913,2.714625 0,1.857375 1.04775,3.095625 1.09538,1.23825 2.8575,2.143125 1.76213,0.904875 4.0005,1.61925 2.23838,0.66675 4.572,1.476375 2.38125,0.762 4.61963,1.714499 2.23837,0.9525 4.0005,2.38125 1.76212,1.42875 2.80987,3.52425 1.09538,2.04788 1.09538,4.953 0,3.33375 -1.19063,6.19125 -1.19062,2.80988 -3.52425,4.90538 -2.33362,2.04787 -5.715,3.2385 -3.38137,1.19062 -7.8105,1.19062 -5.04825,0 -9.144,-1.61925 -4.09575,-1.66687 -6.95325,-4.23862 l 2.00025,-3.2385 q 0.381,-0.61913 0.90488,-0.9525 0.52387,-0.33338 1.38112,-0.33338 0.85725,0 1.80975,0.66675 0.9525,0.66675 2.286,1.47638 1.38113,0.80962 3.28613,1.47637 1.95262,0.66675 4.85775,0.66675 2.4765,0 4.33387,-0.61912 1.85738,-0.66675 3.09563,-1.76213 1.23825,-1.09537 1.80975,-2.52412 0.61912,-1.42875 0.61912,-3.048 0,-2.00025 -1.09537,-3.28613 -1.04775,-1.3335 -2.80988,-2.23837 -1.76212,-0.9525 -4.04812,-1.61925 -2.23838,-0.71438 -4.61963,-1.47638 -2.33362,-0.762 -4.61962,-1.7145 -2.23838,-1.00012 -4.0005,-2.4765 -1.76213,-1.476374 -2.8575,-3.619499 -1.04775,-2.19075 -1.04775,-5.286375 0,-2.76225 1.143,-5.286375 1.143,-2.57175 3.33375,-4.47675 2.19075,-1.952625 5.38162,-3.095625 3.19088,-1.143 7.28663,-1.143 4.7625,0 8.52487,1.524 3.81,1.476375 6.57225,4.09575 z"
       style="font-style:normal;font-variant:normal;font-weight:normal;font-stretch:normal;font-size:95.25px;font-family:Lato;-inkscape-font-specification:'Lato, Normal';font-variant-ligatures:normal;font-variant-caps:normal;font-variant-numeric:normal;font-feature-settings:normal;text-align:start;writing-mode:lr-tb;text-anchor:start;stroke:#b3b3b3;stroke-width:0.41114756;stroke-miterlimit:4;stroke-dasharray:none"
       id="path831"
       inkscape:connector-curvature="0" />
    <path
       d="m 229.08995,126.54029 h -3.76237 q -1.23825,0 -2.00025,-0.381 -0.762,-0.381 -1.00013,-1.61925 l -0.9525,-4.47675 q -1.905,1.7145 -3.71475,3.09563 -1.80975,1.3335 -3.81,2.286 -2.00025,0.90487 -4.28625,1.38112 -2.23837,0.47625 -5.00062,0.47625 -2.80988,0 -5.28638,-0.762 -2.42887,-0.80962 -4.23862,-2.38125 -1.80975,-1.57162 -2.90513,-3.95287 -1.04775,-2.42888 -1.04775,-5.715 0,-2.8575 1.57163,-5.47688 1.57162,-2.667 5.04825,-4.71487 3.52425,-2.04788 9.19162,-3.33375 5.66738,-1.333504 13.85888,-1.524004 v -3.762375 q 0,-5.61975 -2.42888,-8.47725 -2.38125,-2.905125 -7.09612,-2.905125 -3.09563,0 -5.23875,0.809625 -2.0955,0.762 -3.66713,1.762125 -1.524,0.9525 -2.667,1.762125 -1.09537,0.762 -2.19075,0.762 -0.85725,0 -1.524,-0.428625 -0.61912,-0.47625 -1.00012,-1.143 l -1.524,-2.714625 q 4.0005,-3.857625 8.62012,-5.762625 4.61963,-1.905 10.23938,-1.905 4.04812,0 7.19137,1.3335 3.14325,1.3335 5.28638,3.71475 2.14312,2.38125 3.2385,5.762625 1.09537,3.381375 1.09537,7.4295 z m -22.00275,-5.19112 q 2.23838,0 4.09575,-0.42863 1.85738,-0.47625 3.47663,-1.28587 1.66687,-0.85725 3.14325,-2.04788 1.524,-1.19062 2.95275,-2.71462 v -10.04888 q -5.85788,0.1905 -9.95363,0.9525 -4.09575,0.71438 -6.6675,1.905 -2.57175,1.19063 -3.76237,2.80988 -1.143,1.61925 -1.143,3.6195 0,1.905 0.61912,3.28612 0.61913,1.38113 1.66688,2.286 1.04775,0.85725 2.4765,1.28588 1.42875,0.381 3.09562,0.381 z"
       style="font-style:normal;font-variant:normal;font-weight:normal;font-stretch:normal;font-size:95.25px;font-family:Lato;-inkscape-font-specification:'Lato, Normal';font-variant-ligatures:normal;font-variant-caps:normal;font-variant-numeric:normal;font-feature-settings:normal;text-align:start;writing-mode:lr-tb;text-anchor:start;stroke:#b3b3b3;stroke-width:0.41114756;stroke-miterlimit:4;stroke-dasharray:none"
       id="path833"
       inkscape:connector-curvature="0" />
    <path
       d="M 242.0261,126.54029 V 78.296166 h 4.85775 q 1.38112,0 1.905,0.523875 0.52387,0.523875 0.71437,1.80975 l 0.5715,7.52475 q 2.4765,-5.04825 6.096,-7.858125 3.66713,-2.8575 8.5725,-2.8575 2.00025,0 3.6195,0.47625 1.61925,0.428625 3.00038,1.23825 l -1.09538,6.334125 q -0.33337,1.190625 -1.47637,1.190625 -0.66675,0 -2.04788,-0.428625 -1.38112,-0.47625 -3.85762,-0.47625 -4.42913,0 -7.4295,2.57175 -2.95275,2.57175 -4.953,7.477125 v 30.718124 z"
       style="font-style:normal;font-variant:normal;font-weight:normal;font-stretch:normal;font-size:95.25px;font-family:Lato;-inkscape-font-specification:'Lato, Normal';font-variant-ligatures:normal;font-variant-caps:normal;font-variant-numeric:normal;font-feature-settings:normal;text-align:start;writing-mode:lr-tb;text-anchor:start;stroke:#b3b3b3;stroke-width:0.41114756;stroke-miterlimit:4;stroke-dasharray:none"
       id="path835"
       inkscape:connector-curvature="0" />
    <path
       d="m 299.44696,77.534166 q 4.33388,0 8.001,1.476375 3.66713,1.42875 6.33413,4.191 2.667,2.714625 4.14337,6.76275 1.524,4.0005 1.524,9.144 0,2.000249 -0.42862,2.666999 -0.42863,0.66675 -1.61925,0.66675 h -32.09925 q 0.0952,4.572 1.23825,7.95338 1.143,3.38137 3.14325,5.66737 2.00025,2.23838 4.7625,3.38138 2.76225,1.09537 6.19125,1.09537 3.19087,0 5.47687,-0.71437 2.33363,-0.762 4.0005,-1.61925 1.66688,-0.85725 2.76225,-1.57163 1.143,-0.762 1.95263,-0.762 1.04775,0 1.61925,0.80963 l 2.38125,3.09562 q -1.57163,1.905 -3.76238,3.33375 -2.19075,1.38113 -4.71487,2.286 -2.4765,0.90488 -5.1435,1.3335 -2.667,0.47625 -5.28638,0.47625 -5.00062,0 -9.23925,-1.66687 -4.191,-1.7145 -7.28662,-4.953 -3.048,-3.28613 -4.7625,-8.09625 -1.7145,-4.81013 -1.7145,-11.049 0,-5.048254 1.524,-9.429754 1.57162,-4.3815 4.47675,-7.572375 2.90512,-3.2385 7.09612,-5.04825 4.191,-1.857375 9.42975,-1.857375 z m 0.1905,6.238875 q -6.14362,0 -9.66787,3.571875 -3.52425,3.52425 -4.3815,9.81075 h 26.24137 q 0,-2.95275 -0.80962,-5.381625 -0.80963,-2.4765 -2.38125,-4.238625 -1.57163,-1.80975 -3.85763,-2.76225 -2.23837,-1.000125 -5.1435,-1.000125 z"
       style="font-style:normal;font-variant:normal;font-weight:normal;font-stretch:normal;font-size:95.25px;font-family:Lato;-inkscape-font-specification:'Lato, Normal';font-variant-ligatures:normal;font-variant-caps:normal;font-variant-numeric:normal;font-feature-settings:normal;text-align:start;writing-mode:lr-tb;text-anchor:start;stroke:#b3b3b3;stroke-width:0.41114756;stroke-miterlimit:4;stroke-dasharray:none"
       id="path837"
       inkscape:connector-curvature="0" />
    <path
       d="m 339.01738,56.388666 v 41.290875 h 2.19075 q 0.9525,0 1.57163,-0.238125 0.61912,-0.28575 1.38112,-1.095375 l 15.24,-16.335375 q 0.71438,-0.762 1.42875,-1.23825 0.71438,-0.47625 1.905,-0.47625 h 7.71525 l -17.76412,18.907125 q -0.66675,0.809625 -1.3335,1.42875 -0.61913,0.619125 -1.42875,1.095375 0.85725,0.571504 1.524,1.333504 0.71437,0.71437 1.3335,1.66687 l 18.8595,23.8125 h -7.62 q -1.04775,0 -1.80975,-0.381 -0.71438,-0.42862 -1.38113,-1.28587 l -15.85912,-19.76438 q -0.71438,-1.00012 -1.42875,-1.28587 -0.71438,-0.33338 -2.14313,-0.33338 h -2.38125 v 23.0505 h -8.52487 V 56.388666 Z"
       style="font-style:normal;font-variant:normal;font-weight:normal;font-stretch:normal;font-size:95.25px;font-family:Lato;-inkscape-font-specification:'Lato, Normal';font-variant-ligatures:normal;font-variant-caps:normal;font-variant-numeric:normal;font-feature-settings:normal;text-align:start;writing-mode:lr-tb;text-anchor:start;stroke:#b3b3b3;stroke-width:0.41114756;stroke-miterlimit:4;stroke-dasharray:none"
       id="path839"
       inkscape:connector-curvature="0" />
    <path
       d="m 377.30193,121.30154 q 0,-1.23825 0.42863,-2.33362 0.47625,-1.09538 1.23825,-1.905 0.80962,-0.80963 1.905,-1.28588 1.09537,-0.47625 2.33362,-0.47625 1.23825,0 2.33363,0.47625 1.09537,0.47625 1.905,1.28588 0.80962,0.80962 1.23825,1.905 0.47625,1.09537 0.47625,2.33362 0,1.28588 -0.47625,2.38125 -0.42863,1.04775 -1.23825,1.85738 -0.80963,0.80962 -1.905,1.23825 -1.09538,0.47625 -2.33363,0.47625 -1.23825,0 -2.33362,-0.47625 -1.09538,-0.42863 -1.905,-1.23825 -0.762,-0.80963 -1.23825,-1.85738 -0.42863,-1.09537 -0.42863,-2.38125 z"
       style="font-style:normal;font-variant:normal;font-weight:normal;font-stretch:normal;font-size:95.25px;font-family:Lato;-inkscape-font-specification:'Lato, Normal';font-variant-ligatures:normal;font-variant-caps:normal;font-variant-numeric:normal;font-feature-settings:normal;text-align:start;writing-mode:lr-tb;text-anchor:start;stroke:#b3b3b3;stroke-width:0.41114756;stroke-miterlimit:4;stroke-dasharray:none"
       id="path841"
       inkscape:connector-curvature="0" />
    <path
       d="m 419.43964,77.534166 q 4.33387,0 8.001,1.476375 3.66712,1.42875 6.33412,4.191 2.667,2.714625 4.14338,6.76275 1.524,4.0005 1.524,9.144 0,2.000249 -0.42863,2.666999 -0.42862,0.66675 -1.61925,0.66675 h -32.09925 q 0.0953,4.572 1.23825,7.95338 1.143,3.38137 3.14325,5.66737 2.00025,2.23838 4.7625,3.38138 2.76225,1.09537 6.19125,1.09537 3.19088,0 5.47688,-0.71437 2.33362,-0.762 4.0005,-1.61925 1.66687,-0.85725 2.76225,-1.57163 1.143,-0.762 1.95262,-0.762 1.04775,0 1.61925,0.80963 l 2.38125,3.09562 q -1.57162,1.905 -3.76237,3.33375 -2.19075,1.38113 -4.71488,2.286 -2.4765,0.90488 -5.1435,1.3335 -2.667,0.47625 -5.28637,0.47625 -5.00063,0 -9.23925,-1.66687 -4.191,-1.7145 -7.28663,-4.953 -3.048,-3.28613 -4.7625,-8.09625 -1.7145,-4.81013 -1.7145,-11.049 0,-5.048254 1.524,-9.429754 1.57163,-4.3815 4.47675,-7.572375 2.90513,-3.2385 7.09613,-5.04825 4.191,-1.857375 9.42975,-1.857375 z m 0.1905,6.238875 q -6.14363,0 -9.66788,3.571875 -3.52425,3.52425 -4.3815,9.81075 h 26.24138 q 0,-2.95275 -0.80963,-5.381625 -0.80962,-2.4765 -2.38125,-4.238625 -1.57162,-1.80975 -3.85762,-2.76225 -2.23838,-1.000125 -5.1435,-1.000125 z"
       style="font-style:normal;font-variant:normal;font-weight:normal;font-stretch:normal;font-size:95.25px;font-family:Lato;-inkscape-font-specification:'Lato, Normal';font-variant-ligatures:normal;font-variant-caps:normal;font-variant-numeric:normal;font-feature-settings:normal;text-align:start;writing-mode:lr-tb;text-anchor:start;stroke:#b3b3b3;stroke-width:0.41114756;stroke-miterlimit:4;stroke-dasharray:none"
       id="path843"
       inkscape:connector-curvature="0" />
    <path
       d="m 457.53369,78.296166 v 30.765754 q 0,5.47687 2.52412,8.47725 2.52413,3.00037 7.62,3.00037 3.71475,0 7.00088,-1.76212 3.28612,-1.76213 6.04837,-4.90538 V 78.296166 h 8.47725 v 48.244124 h -5.04825 q -1.80975,0 -2.286,-1.76212 l -0.66675,-5.19113 q -3.14325,3.47663 -7.0485,5.61975 -3.90525,2.0955 -8.9535,2.0955 -3.95287,0 -7.00087,-1.28587 -3.00038,-1.3335 -5.04825,-3.71475 -2.04788,-2.38125 -3.09563,-5.76263 -1.00012,-3.38137 -1.00012,-7.47712 V 78.296166 Z"
       style="font-style:normal;font-variant:normal;font-weight:normal;font-stretch:normal;font-size:95.25px;font-family:Lato;-inkscape-font-specification:'Lato, Normal';font-variant-ligatures:normal;font-variant-caps:normal;font-variant-numeric:normal;font-feature-settings:normal;text-align:start;writing-mode:lr-tb;text-anchor:start;stroke:#b3b3b3;stroke-width:0.41114756;stroke-miterlimit:4;stroke-dasharray:none"
       id="path845"
       inkscape:connector-curvature="0" />
  </g>
  <flowRoot
     xml:space="preserve"
     id="flowRoot1038"
     style="fill:black;fill-opacity:1;stroke:none;font-family:Asap;font-style:normal;font-weight:normal;font-size:13.33333333px;line-height:1.25;letter-spacing:0px;word-spacing:0px;-inkscape-font-specification:Asap;font-stretch:normal;font-variant:normal;text-anchor:start;text-align:start;writing-mode:lr;font-variant-ligatures:normal;font-variant-caps:normal;font-variant-numeric:normal;font-feature-settings:normal"><flowRegion
       id="flowRegion1040"><rect
         id="rect1042"
         width="108.25783"
         height="17.09334"
         x="148.14229"
         y="363.21451" /></flowRegion><flowPara
       id="flowPara1044" /></flowRoot></svg>
